<?xml version="1.0" encoding="UTF-8" standalone="no"?>
<!-- Created with Inkscape (http://www.inkscape.org/) -->

<svg
   xmlns:dc="http://purl.org/dc/elements/1.1/"
   xmlns:cc="http://creativecommons.org/ns#"
   xmlns:rdf="http://www.w3.org/1999/02/22-rdf-syntax-ns#"
   xmlns:svg="http://www.w3.org/2000/svg"
   xmlns="http://www.w3.org/2000/svg"
   xmlns:sodipodi="http://sodipodi.sourceforge.net/DTD/sodipodi-0.dtd"
   xmlns:inkscape="http://www.inkscape.org/namespaces/inkscape"
   id="svg3528"
   version="1.1"
   inkscape:version="0.91 r13725"
   xml:space="preserve"
   width="375"
   height="375"
   viewBox="0 0 375 375"
   sodipodi:docname="acs-icon.svg"><metadata
     id="metadata3534"><rdf:RDF><cc:Work
         rdf:about=""><dc:format>image/svg+xml</dc:format><dc:type
           rdf:resource="http://purl.org/dc/dcmitype/StillImage" /><dc:title></dc:title></cc:Work></rdf:RDF></metadata><defs
     id="defs3532"><clipPath
       clipPathUnits="userSpaceOnUse"
       id="clipPath3542"><path
         d="M 0,300 300,300 300,0 0,0 0,300 Z"
         id="path3544"
         inkscape:connector-curvature="0" /></clipPath></defs><sodipodi:namedview
     pagecolor="#ffffff"
     bordercolor="#666666"
     borderopacity="1"
     objecttolerance="10"
     gridtolerance="10"
     guidetolerance="10"
     inkscape:pageopacity="0"
     inkscape:pageshadow="2"
     inkscape:window-width="640"
     inkscape:window-height="480"
     id="namedview3530"
     showgrid="false"
     inkscape:zoom="0.62933333"
     inkscape:cx="187.5"
     inkscape:cy="187.5"
     inkscape:window-x="0"
     inkscape:window-y="0"
     inkscape:window-maximized="0"
     inkscape:current-layer="g3536" /><g
     id="g3536"
     inkscape:groupmode="layer"
     inkscape:label="icones_6"
     transform="matrix(1.25,0,0,-1.25,0,375)"><g
       id="g3538"><g
         id="g3540"
         clip-path="url(#clipPath3542)"><g
           id="g3546"
           transform="translate(300.0612,149.9387)"><path
             d="m 0,0 c 0,-82.877 -67.185,-150.061 -150.061,-150.061 -82.877,0 -150.061,67.184 -150.061,150.061 0,82.877 67.184,150.061 150.061,150.061 C -67.185,150.061 0,82.877 0,0"
             style="fill:#ebebec;fill-opacity:1;fill-rule:nonzero;stroke:none"
             id="path3548"
             inkscape:connector-curvature="0" /></g><g
           id="g3550"
           transform="translate(286.8355,149.9387)"><path
             d="m 0,0 c 0,-75.572 -61.263,-136.835 -136.835,-136.835 -75.573,0 -136.836,61.263 -136.836,136.835 0,75.572 61.263,136.835 136.836,136.835 C -61.263,136.835 0,75.572 0,0"
             style="fill:#ffffff;fill-opacity:1;fill-rule:nonzero;stroke:none"
             id="path3552"
             inkscape:connector-curvature="0" /></g><path
           d="m 204.556,186.124 -18.847,0 0,9.423 18.847,0 0,-9.423 z m -65.963,0 -9.423,0 0,9.423 9.423,0 0,-9.423 z m -18.847,0 -9.423,0 0,9.423 9.423,0 0,-9.423 z m -18.847,0 -9.423,0 0,9.423 9.423,0 0,-9.423 z m 108.501,27.004 -122.768,0 c -7.734,0 -14.003,-6.269 -14.003,-14.002 l 0,-9.131 c 0,-7.734 6.269,-14.003 14.003,-14.003 l 122.768,0 c 7.734,0 14.003,6.269 14.003,14.003 l 0,9.131 c 0,7.733 -6.269,14.002 -14.003,14.002"
           style="fill:#2aaddd;fill-opacity:1;fill-rule:nonzero;stroke:none"
           id="path3554"
           inkscape:connector-curvature="0" /><path
           d="m 204.556,138.889 -18.847,0 0,9.423 18.847,0 0,-9.423 z m -65.963,0 -9.423,0 0,9.423 9.423,0 0,-9.423 z m -18.847,0 -9.423,0 0,9.423 9.423,0 0,-9.423 z m -18.847,0 -9.423,0 0,9.423 9.423,0 0,-9.423 z m 108.501,27.004 -122.768,0 c -7.734,0 -14.003,-6.269 -14.003,-14.002 l 0,-9.131 c 0,-7.733 6.269,-14.003 14.003,-14.003 l 122.768,0 c 7.734,0 14.003,6.27 14.003,14.003 l 0,9.131 c 0,7.733 -6.269,14.002 -14.003,14.002"
           style="fill:#2aaddd;fill-opacity:1;fill-rule:nonzero;stroke:none"
           id="path3556"
           inkscape:connector-curvature="0" /><path
           d="m 204.556,92.316 -18.847,0 0,9.423 18.847,0 0,-9.423 z m -65.963,0 -9.423,0 0,9.423 9.423,0 0,-9.423 z m -18.847,0 -9.423,0 0,9.423 9.423,0 0,-9.423 z m -18.847,0 -9.423,0 0,9.423 9.423,0 0,-9.423 z m 108.501,27.004 -122.768,0 c -7.734,0 -14.003,-6.269 -14.003,-14.003 l 0,-9.131 c 0,-7.733 6.269,-14.002 14.003,-14.002 l 122.768,0 c 7.734,0 14.003,6.269 14.003,14.002 l 0,9.131 c 0,7.734 -6.269,14.003 -14.003,14.003"
           style="fill:#2aaddd;fill-opacity:1;fill-rule:nonzero;stroke:none"
           id="path3558"
           inkscape:connector-curvature="0" /></g></g></g></svg>