<?xml version="1.0" encoding="UTF-8" standalone="no"?>
<!-- Created with Inkscape (http://www.inkscape.org/) -->

<svg
   xmlns:dc="http://purl.org/dc/elements/1.1/"
   xmlns:cc="http://creativecommons.org/ns#"
   xmlns:rdf="http://www.w3.org/1999/02/22-rdf-syntax-ns#"
   xmlns:svg="http://www.w3.org/2000/svg"
   xmlns="http://www.w3.org/2000/svg"
   xmlns:sodipodi="http://sodipodi.sourceforge.net/DTD/sodipodi-0.dtd"
   xmlns:inkscape="http://www.inkscape.org/namespaces/inkscape"
   id="svg3494"
   version="1.1"
   inkscape:version="0.91 r13725"
   xml:space="preserve"
   width="375"
   height="375"
   viewBox="0 0 375 375"
   sodipodi:docname="casa-cliente.svg"><metadata
     id="metadata3500"><rdf:RDF><cc:Work
         rdf:about=""><dc:format>image/svg+xml</dc:format><dc:type
           rdf:resource="http://purl.org/dc/dcmitype/StillImage" /><dc:title></dc:title></cc:Work></rdf:RDF></metadata><defs
     id="defs3498"><clipPath
       clipPathUnits="userSpaceOnUse"
       id="clipPath3508"><path
         d="M 0,300 300,300 300,0 0,0 0,300 Z"
         id="path3510"
         inkscape:connector-curvature="0" /></clipPath></defs><sodipodi:namedview
     pagecolor="#ffffff"
     bordercolor="#666666"
     borderopacity="1"
     objecttolerance="10"
     gridtolerance="10"
     guidetolerance="10"
     inkscape:pageopacity="0"
     inkscape:pageshadow="2"
     inkscape:window-width="640"
     inkscape:window-height="480"
     id="namedview3496"
     showgrid="false"
     inkscape:zoom="0.62933333"
     inkscape:cx="187.5"
     inkscape:cy="187.5"
     inkscape:window-x="0"
     inkscape:window-y="0"
     inkscape:window-maximized="0"
     inkscape:current-layer="g3502" /><g
     id="g3502"
     inkscape:groupmode="layer"
     inkscape:label="icones_5"
     transform="matrix(1.25,0,0,-1.25,0,375)"><g
       id="g3504"><g
         id="g3506"
         clip-path="url(#clipPath3508)"><g
           id="g3512"
           transform="translate(300.0612,149.9387)"><path
             d="m 0,0 c 0,-82.877 -67.185,-150.061 -150.061,-150.061 -82.877,0 -150.061,67.184 -150.061,150.061 0,82.877 67.184,150.061 150.061,150.061 C -67.185,150.061 0,82.877 0,0"
             style="fill:#ebebec;fill-opacity:1;fill-rule:nonzero;stroke:none"
             id="path3514"
             inkscape:connector-curvature="0" /></g><g
           id="g3516"
           transform="translate(286.8355,149.9387)"><path
             d="m 0,0 c 0,-75.572 -61.263,-136.835 -136.835,-136.835 -75.573,0 -136.836,61.263 -136.836,136.835 0,75.572 61.263,136.835 136.836,136.835 C -61.263,136.835 0,75.572 0,0"
             style="fill:#ffffff;fill-opacity:1;fill-rule:nonzero;stroke:none"
             id="path3518"
             inkscape:connector-curvature="0" /></g><path
           d="m 130.579,156.716 14.227,0 0,25.389 -14.227,0 0,-25.389 z"
           style="fill:#2aaddd;fill-opacity:1;fill-rule:nonzero;stroke:none"
           id="path3520"
           inkscape:connector-curvature="0" /><path
           d="m 166.462,182.105 -14.227,0 0,-25.389 14.227,0 0,25.389 z"
           style="fill:#2aaddd;fill-opacity:1;fill-rule:nonzero;stroke:none"
           id="path3522"
           inkscape:connector-curvature="0" /><g
           id="g3524"
           transform="translate(211.2035,88.166)"><path
             d="m 0,0 -74.934,0 0,43.523 c 0,10.079 -8.171,18.25 -18.25,18.25 -10.079,0 -18.25,-8.171 -18.25,-18.25 l 0,-43.523 -14.004,0 0,68.999 63.462,47.8 L 0,70.146 0,0 Z m 25.494,79.111 -78.402,59.018 c -2.361,2.949 -5.919,4.411 -9.451,4.199 -3.246,-0.03 -6.436,-1.458 -8.623,-4.151 l -32.952,-24.82 0,9.692 c 0,2.781 -2.254,5.035 -5.035,5.035 l -14.18,0 c -2.781,0 -5.035,-2.254 -5.035,-5.035 l 0,-27.957 -21.235,-15.994 c -4.962,-3.738 -5.955,-10.79 -2.217,-15.751 3.005,-3.99 8.151,-5.407 12.633,-3.869 l 0,-59.478 -6.283,0 0,-12.191 165.139,0 0,12.191 -6.287,0 0,60.146 c 4.786,-2.483 10.799,-1.236 14.15,3.215 l 0,0 c 3.736,4.963 2.741,12.014 -2.222,15.75"
             style="fill:#2aaddd;fill-opacity:1;fill-rule:nonzero;stroke:none"
             id="path3526"
             inkscape:connector-curvature="0" /></g></g></g></g></svg>