<?xml version="1.0" encoding="UTF-8" standalone="no"?>
<!-- Created with Inkscape (http://www.inkscape.org/) -->

<svg
   xmlns:dc="http://purl.org/dc/elements/1.1/"
   xmlns:cc="http://creativecommons.org/ns#"
   xmlns:rdf="http://www.w3.org/1999/02/22-rdf-syntax-ns#"
   xmlns:svg="http://www.w3.org/2000/svg"
   xmlns="http://www.w3.org/2000/svg"
   xmlns:sodipodi="http://sodipodi.sourceforge.net/DTD/sodipodi-0.dtd"
   xmlns:inkscape="http://www.inkscape.org/namespaces/inkscape"
   id="svg3382"
   version="1.1"
   inkscape:version="0.91 r13725"
   xml:space="preserve"
   width="375"
   height="375"
   viewBox="0 0 375 375"
   sodipodi:docname="centro-icon.svg"><metadata
     id="metadata3388"><rdf:RDF><cc:Work
         rdf:about=""><dc:format>image/svg+xml</dc:format><dc:type
           rdf:resource="http://purl.org/dc/dcmitype/StillImage" /><dc:title></dc:title></cc:Work></rdf:RDF></metadata><defs
     id="defs3386"><clipPath
       clipPathUnits="userSpaceOnUse"
       id="clipPath3396"><path
         d="M 0,300 300,300 300,0 0,0 0,300 Z"
         id="path3398"
         inkscape:connector-curvature="0" /></clipPath></defs><sodipodi:namedview
     pagecolor="#ffffff"
     bordercolor="#666666"
     borderopacity="1"
     objecttolerance="10"
     gridtolerance="10"
     guidetolerance="10"
     inkscape:pageopacity="0"
     inkscape:pageshadow="2"
     inkscape:window-width="640"
     inkscape:window-height="480"
     id="namedview3384"
     showgrid="false"
     inkscape:zoom="0.62933333"
     inkscape:cx="187.5"
     inkscape:cy="187.5"
     inkscape:window-x="0"
     inkscape:window-y="0"
     inkscape:window-maximized="0"
     inkscape:current-layer="g3390" /><g
     id="g3390"
     inkscape:groupmode="layer"
     inkscape:label="icones_2"
     transform="matrix(1.25,0,0,-1.25,0,375)"><g
       id="g3392"><g
         id="g3394"
         clip-path="url(#clipPath3396)"><g
           id="g3400"
           transform="translate(300.0612,149.9387)"><path
             d="m 0,0 c 0,-82.877 -67.185,-150.061 -150.061,-150.061 -82.877,0 -150.061,67.184 -150.061,150.061 0,82.877 67.184,150.061 150.061,150.061 C -67.185,150.061 0,82.877 0,0"
             style="fill:#ebebec;fill-opacity:1;fill-rule:nonzero;stroke:none"
             id="path3402"
             inkscape:connector-curvature="0" /></g><g
           id="g3404"
           transform="translate(286.8354,149.9387)"><path
             d="m 0,0 c 0,-75.572 -61.263,-136.835 -136.835,-136.835 -75.573,0 -136.836,61.263 -136.836,136.835 0,75.572 61.263,136.835 136.836,136.835 C -61.263,136.835 0,75.572 0,0"
             style="fill:#ffffff;fill-opacity:1;fill-rule:nonzero;stroke:none"
             id="path3406"
             inkscape:connector-curvature="0" /></g><g
           id="g3408"
           transform="translate(243.6993,147.656)"><path
             d="m 0,0 -41.28,0 c -4.029,0 -7.294,-3.266 -7.294,-7.294 l 0,-32.899 c 0,-4.028 3.265,-7.294 7.294,-7.294 l 41.28,0 c 4.028,0 7.294,3.266 7.294,7.294 l 0,32.899 C 7.294,-3.266 4.028,0 0,0"
             style="fill:#2aaddd;fill-opacity:1;fill-rule:nonzero;stroke:none"
             id="path3410"
             inkscape:connector-curvature="0" /></g><g
           id="g3412"
           transform="translate(243.6993,200.6692)"><path
             d="m 0,0 -41.28,0 c -4.029,0 -7.294,-3.266 -7.294,-7.294 l 0,-32.899 c 0,-4.028 3.265,-7.294 7.294,-7.294 l 41.28,0 c 4.028,0 7.294,3.266 7.294,7.294 l 0,32.899 C 7.294,-3.266 4.028,0 0,0"
             style="fill:#2aaddd;fill-opacity:1;fill-rule:nonzero;stroke:none"
             id="path3414"
             inkscape:connector-curvature="0" /></g><g
           id="g3416"
           transform="translate(213.3539,206.1451)"><path
             d="m 0,0 19.409,0 c 2.242,0 4.059,1.817 4.059,4.058 l 0,15.281 c 0,2.241 -1.817,4.058 -4.059,4.058 L 0,23.397 c -2.241,0 -4.058,-1.817 -4.058,-4.058 l 0,-15.281 C -4.058,1.817 -2.241,0 0,0"
             style="fill:#2aaddd;fill-opacity:1;fill-rule:nonzero;stroke:none"
             id="path3418"
             inkscape:connector-curvature="0" /></g><g
           id="g3420"
           transform="translate(137.1175,68.3759)"><path
             d="m 0,0 c -3.542,0 -6.413,2.871 -6.413,6.413 0,3.541 2.871,6.412 6.413,6.412 3.542,0 6.412,-2.871 6.412,-6.412 C 6.412,2.871 3.542,0 0,0 m 0,18.239 c -6.531,0 -11.826,-5.295 -11.826,-11.826 0,-6.532 5.295,-11.826 11.826,-11.826 6.531,0 11.826,5.294 11.826,11.826 0,6.531 -5.295,11.826 -11.826,11.826"
             style="fill:#2aaddd;fill-opacity:1;fill-rule:nonzero;stroke:none"
             id="path3422"
             inkscape:connector-curvature="0" /></g><g
           id="g3424"
           transform="translate(146.2624,109.9941)"><path
             d="m 0,0 -9.576,26.772 c 0.992,1.352 1.863,2.911 2.545,4.639 2.826,7.172 1.356,14.469 -3.285,16.298 -4.64,1.829 -10.693,-2.503 -13.52,-9.675 -2.826,-7.172 -1.356,-14.469 3.284,-16.298 2.011,-0.792 4.287,-0.424 6.451,0.826 L -6.114,0 l -27.815,0 0,16.192 c 0,3.685 -3.105,6.672 -6.936,6.672 l -39.399,0 0,54.04 c 0,0 -0.07,14.652 14.514,16.102 l 19.317,0 L -0.98,71.36 c 0,0 8.809,-3.256 8.809,-15.845 L 7.829,0 0,0 Z m 81.978,-16.17 -39.787,0 0,57.115 c 0,2.132 -1.031,4.188 -2.856,5.291 -1.344,0.812 -2.473,0.721 -3.514,0.421 l 0,0.216 -8.199,0 c -0.028,0 -0.051,0.023 -0.051,0.051 l 0,67.365 c 0,2.637 -1.926,5.011 -4.553,5.239 -2.963,0.258 -5.447,-2.071 -5.447,-4.98 l 0,-114.548 -4.853,0 0,56.493 c 0,13.987 -9.787,17.604 -9.787,17.604 l -50.498,24.048 -19.065,0 c -16.203,-1.61 -18.52,-17.889 -18.52,-17.889 l 0,-57.741 0.301,-0.185 c -2.478,-1.018 -4.215,-3.383 -4.215,-6.138 l 0,-44.586 c 0,-3.654 3.054,-6.618 6.84,-6.668 -0.654,1.995 -1.019,4.114 -1.041,6.314 -0.124,11.978 9.868,21.785 22.319,21.905 12.45,0.119 22.644,-9.494 22.768,-21.473 0,-0.005 10e-4,-0.009 10e-4,-0.014 l 0,-3.86 c 0,-1.665 1.35,-3.016 3.016,-3.016 l 6.601,0 c 1.498,0 2.752,1.104 2.978,2.585 1.245,8.156 8.29,14.404 16.794,14.404 8.504,0 15.548,-6.248 16.793,-14.404 0.226,-1.481 1.48,-2.585 2.979,-2.585 l 24.198,0 c 1.665,0 3.016,1.351 3.016,3.016 l 0,6.696 43.782,0 c 2.575,0 4.663,2.087 4.663,4.662 0,2.575 -2.088,4.662 -4.663,4.662"
             style="fill:#2aaddd;fill-opacity:1;fill-rule:nonzero;stroke:none"
             id="path3426"
             inkscape:connector-curvature="0" /></g><g
           id="g3428"
           transform="translate(85.6483,68.4305)"><path
             d="m 0,0 c -6.078,-0.061 -11.055,4.818 -11.115,10.896 -0.061,6.078 4.817,11.055 10.896,11.116 6.078,0.06 11.055,-4.818 11.115,-10.897 C 10.957,5.037 6.078,0.061 0,0 M -0.288,28.908 C -10.175,28.81 -18.111,20.715 -18.012,10.827 -17.914,0.94 -9.818,-6.995 0.069,-6.897 9.956,-6.798 17.891,1.297 17.793,11.184 17.694,21.071 9.599,29.007 -0.288,28.908"
             style="fill:#2aaddd;fill-opacity:1;fill-rule:nonzero;stroke:none"
             id="path3430"
             inkscape:connector-curvature="0" /></g></g></g></g></svg>