<?xml version="1.0" encoding="UTF-8" standalone="no"?>
<!-- Created with Inkscape (http://www.inkscape.org/) -->

<svg
   xmlns:dc="http://purl.org/dc/elements/1.1/"
   xmlns:cc="http://creativecommons.org/ns#"
   xmlns:rdf="http://www.w3.org/1999/02/22-rdf-syntax-ns#"
   xmlns:svg="http://www.w3.org/2000/svg"
   xmlns="http://www.w3.org/2000/svg"
   xmlns:sodipodi="http://sodipodi.sourceforge.net/DTD/sodipodi-0.dtd"
   xmlns:inkscape="http://www.inkscape.org/namespaces/inkscape"
   id="svg3560"
   version="1.1"
   inkscape:version="0.91 r13725"
   xml:space="preserve"
   width="375"
   height="375"
   viewBox="0 0 375 375"
   sodipodi:docname="col-icon.svg"><metadata
     id="metadata3566"><rdf:RDF><cc:Work
         rdf:about=""><dc:format>image/svg+xml</dc:format><dc:type
           rdf:resource="http://purl.org/dc/dcmitype/StillImage" /><dc:title></dc:title></cc:Work></rdf:RDF></metadata><defs
     id="defs3564"><clipPath
       clipPathUnits="userSpaceOnUse"
       id="clipPath3574"><path
         d="M 0,300 300,300 300,0 0,0 0,300 Z"
         id="path3576"
         inkscape:connector-curvature="0" /></clipPath></defs><sodipodi:namedview
     pagecolor="#ffffff"
     bordercolor="#666666"
     borderopacity="1"
     objecttolerance="10"
     gridtolerance="10"
     guidetolerance="10"
     inkscape:pageopacity="0"
     inkscape:pageshadow="2"
     inkscape:window-width="640"
     inkscape:window-height="480"
     id="namedview3562"
     showgrid="false"
     inkscape:zoom="0.62933333"
     inkscape:cx="187.5"
     inkscape:cy="187.5"
     inkscape:window-x="0"
     inkscape:window-y="0"
     inkscape:window-maximized="0"
     inkscape:current-layer="g3568" /><g
     id="g3568"
     inkscape:groupmode="layer"
     inkscape:label="icones_7"
     transform="matrix(1.25,0,0,-1.25,0,375)"><g
       id="g3570"><g
         id="g3572"
         clip-path="url(#clipPath3574)"><g
           id="g3578"
           transform="translate(300.0611,149.9387)"><path
             d="m 0,0 c 0,-82.877 -67.185,-150.061 -150.061,-150.061 -82.877,0 -150.061,67.184 -150.061,150.061 0,82.877 67.184,150.061 150.061,150.061 C -67.185,150.061 0,82.877 0,0"
             style="fill:#ebebec;fill-opacity:1;fill-rule:nonzero;stroke:none"
             id="path3580"
             inkscape:connector-curvature="0" /></g><g
           id="g3582"
           transform="translate(286.8354,149.9387)"><path
             d="m 0,0 c 0,-75.572 -61.263,-136.835 -136.835,-136.835 -75.573,0 -136.836,61.263 -136.836,136.835 0,75.572 61.263,136.835 136.836,136.835 C -61.263,136.835 0,75.572 0,0"
             style="fill:#ffffff;fill-opacity:1;fill-rule:nonzero;stroke:none"
             id="path3584"
             inkscape:connector-curvature="0" /></g><path
           d="m 223.358,137.36 -18.847,0 0,9.423 18.847,0 0,-9.423 z m -65.963,0 -9.423,0 0,9.423 9.423,0 0,-9.423 z m -18.847,0 -9.423,0 0,9.423 9.423,0 0,-9.423 z m -18.846,0 -9.423,0 0,9.423 9.423,0 0,-9.423 z m 108.501,27.004 -122.769,0 c -7.733,0 -14.002,-6.269 -14.002,-14.003 l 0,-9.131 c 0,-7.733 6.269,-14.002 14.002,-14.002 l 122.769,0 c 7.733,0 14.002,6.269 14.002,14.002 l 0,9.131 c 0,7.734 -6.269,14.003 -14.002,14.003"
           style="fill:#2aaddd;fill-opacity:1;fill-rule:nonzero;stroke:none"
           id="path3586"
           inkscape:connector-curvature="0" /><path
           d="m 223.358,88.36 -18.847,0 0,9.423 18.847,0 0,-9.423 z m -65.963,0 -9.423,0 0,9.423 9.423,0 0,-9.423 z m -18.847,0 -9.423,0 0,9.423 9.423,0 0,-9.423 z m -18.846,0 -9.423,0 0,9.423 9.423,0 0,-9.423 z m 108.501,27.004 -122.769,0 c -7.733,0 -14.002,-6.269 -14.002,-14.003 l 0,-9.131 c 0,-7.733 6.269,-14.002 14.002,-14.002 l 122.769,0 c 7.733,0 14.002,6.269 14.002,14.002 l 0,9.131 c 0,7.734 -6.269,14.003 -14.002,14.003"
           style="fill:#2aaddd;fill-opacity:1;fill-rule:nonzero;stroke:none"
           id="path3588"
           inkscape:connector-curvature="0" /><g
           id="g3590"
           transform="translate(68.5755,147.9524)"><path
             d="m 0,0 c -0.037,0 -0.073,0 -0.11,0.001 -2.754,0.061 -4.942,2.327 -4.891,5.082 0.009,0.47 0.286,11.639 6.9,23.473 6.122,10.953 18.976,24.599 45.447,27.408 2.742,0.289 5.208,-1.699 5.499,-4.445 C 53.137,48.773 51.146,46.311 48.4,46.02 6.406,41.564 5.035,6.378 4.997,4.883 4.928,2.166 2.704,0 0,0"
             style="fill:#2aaddd;fill-opacity:1;fill-rule:nonzero;stroke:none"
             id="path3592"
             inkscape:connector-curvature="0" /></g><g
           id="g3594"
           transform="translate(41.578,151.6106)"><path
             d="m 0,0 c -0.158,0 -0.318,0.007 -0.479,0.022 -2.75,0.262 -4.766,2.703 -4.504,5.452 0.066,0.699 1.751,17.339 12.341,34.825 9.837,16.24 29.463,36.25 67.102,39.35 2.739,0.237 5.166,-1.819 5.394,-4.572 C 80.08,72.325 78.032,69.91 75.28,69.684 48.439,67.473 28.465,55.843 15.912,35.118 6.493,19.568 4.985,4.676 4.972,4.526 4.726,1.938 2.548,0 0,0"
             style="fill:#2aaddd;fill-opacity:1;fill-rule:nonzero;stroke:none"
             id="path3596"
             inkscape:connector-curvature="0" /></g></g></g></g></svg>