<?xml version="1.0" encoding="UTF-8" standalone="no"?>
<!-- Created with Inkscape (http://www.inkscape.org/) -->

<svg
   xmlns:dc="http://purl.org/dc/elements/1.1/"
   xmlns:cc="http://creativecommons.org/ns#"
   xmlns:rdf="http://www.w3.org/1999/02/22-rdf-syntax-ns#"
   xmlns:svg="http://www.w3.org/2000/svg"
   xmlns="http://www.w3.org/2000/svg"
   xmlns:sodipodi="http://sodipodi.sourceforge.net/DTD/sodipodi-0.dtd"
   xmlns:inkscape="http://www.inkscape.org/namespaces/inkscape"
   id="svg3336"
   version="1.1"
   inkscape:version="0.91 r13725"
   xml:space="preserve"
   width="375"
   height="375"
   viewBox="0 0 375 375"
   sodipodi:docname="em-aberto-icon.svg"><metadata
     id="metadata3342"><rdf:RDF><cc:Work
         rdf:about=""><dc:format>image/svg+xml</dc:format><dc:type
           rdf:resource="http://purl.org/dc/dcmitype/StillImage" /><dc:title></dc:title></cc:Work></rdf:RDF></metadata><defs
     id="defs3340"><clipPath
       clipPathUnits="userSpaceOnUse"
       id="clipPath3350"><path
         d="M 0,300 300,300 300,0 0,0 0,300 Z"
         id="path3352"
         inkscape:connector-curvature="0" /></clipPath></defs><sodipodi:namedview
     pagecolor="#ffffff"
     bordercolor="#666666"
     borderopacity="1"
     objecttolerance="10"
     gridtolerance="10"
     guidetolerance="10"
     inkscape:pageopacity="0"
     inkscape:pageshadow="2"
     inkscape:window-width="1920"
     inkscape:window-height="1028"
     id="namedview3338"
     showgrid="false"
     inkscape:zoom="2.2906667"
     inkscape:cx="187.5"
     inkscape:cy="187.5"
     inkscape:window-x="1912"
     inkscape:window-y="-8"
     inkscape:window-maximized="1"
     inkscape:current-layer="g3344" /><g
     id="g3344"
     inkscape:groupmode="layer"
     inkscape:label="icones_1"
     transform="matrix(1.25,0,0,-1.25,0,375)"><g
       id="g3346"><g
         id="g3348"
         clip-path="url(#clipPath3350)"><g
           id="g3354"
           transform="translate(300.0612,149.9387)"><path
             d="m 0,0 c 0,-82.877 -67.185,-150.061 -150.061,-150.061 -82.877,0 -150.061,67.184 -150.061,150.061 0,82.877 67.184,150.061 150.061,150.061 C -67.185,150.061 0,82.877 0,0"
             style="fill:#ebebec;fill-opacity:1;fill-rule:nonzero;stroke:none"
             id="path3356"
             inkscape:connector-curvature="0" /></g><g
           id="g3358"
           transform="translate(286.8354,149.9387)"><path
             d="m 0,0 c 0,-75.572 -61.263,-136.835 -136.835,-136.835 -75.573,0 -136.836,61.263 -136.836,136.835 0,75.572 61.263,136.835 136.836,136.835 C -61.263,136.835 0,75.572 0,0"
             style="fill:#ffffff;fill-opacity:1;fill-rule:nonzero;stroke:none"
             id="path3360"
             inkscape:connector-curvature="0" /></g><g
           id="g3362"
           transform="translate(171.4685,180.9368)"><path
             d="m 0,0 -61.777,0 c -2.388,0 -4.323,-1.935 -4.323,-4.323 0,-2.388 1.935,-4.323 4.323,-4.323 l 61.777,0 c 2.388,0 4.323,1.935 4.323,4.323 C 4.323,-1.935 2.388,0 0,0"
             style="fill:#2aaddd;fill-opacity:1;fill-rule:nonzero;stroke:none"
             id="path3364"
             inkscape:connector-curvature="0" /></g><g
           id="g3366"
           transform="translate(171.4685,154.2619)"><path
             d="m 0,0 -61.777,0 c -2.388,0 -4.323,-1.936 -4.323,-4.323 0,-2.388 1.935,-4.323 4.323,-4.323 l 61.777,0 c 2.388,0 4.323,1.935 4.323,4.323 C 4.323,-1.936 2.388,0 0,0"
             style="fill:#2aaddd;fill-opacity:1;fill-rule:nonzero;stroke:none"
             id="path3368"
             inkscape:connector-curvature="0" /></g><g
           id="g3370"
           transform="translate(171.4685,127.587)"><path
             d="m 0,0 -61.777,0 c -2.388,0 -4.323,-1.936 -4.323,-4.323 0,-2.388 1.935,-4.323 4.323,-4.323 l 61.777,0 c 2.388,0 4.323,1.935 4.323,4.323 C 4.323,-1.936 2.388,0 0,0"
             style="fill:#2aaddd;fill-opacity:1;fill-rule:nonzero;stroke:none"
             id="path3372"
             inkscape:connector-curvature="0" /></g><g
           id="g3374"
           transform="translate(171.4685,100.912)"><path
             d="m 0,0 -31.73,0 c -2.388,0 -4.323,-1.936 -4.323,-4.323 0,-2.388 1.935,-4.323 4.323,-4.323 l 31.73,0 c 2.388,0 4.323,1.935 4.323,4.323 C 4.323,-1.936 2.388,0 0,0"
             style="fill:#2aaddd;fill-opacity:1;fill-rule:nonzero;stroke:none"
             id="path3376"
             inkscape:connector-curvature="0" /></g><g
           id="g3378"
           transform="translate(204.821,100.6295)"><path
             d="m 0,0 c 0,-2.638 -2.139,-4.776 -4.777,-4.776 l -5.36,0 0,95.523 c 0,7.527 -6.102,13.629 -13.629,13.629 l -67.141,0 0,5.556 c 0,2.638 2.138,4.777 4.776,4.777 l 81.354,0 C -2.139,114.709 0,112.57 0,109.932 L 0,0 Z m -18.787,-18.209 c 0,-3.063 -2.484,-5.546 -5.547,-5.546 l -56.995,0 0,23.435 c 0,2.69 -2.031,4.946 -4.707,5.228 l -23.659,0.004 0,85.271 c 0,3.064 2.483,5.547 5.547,5.547 l 79.814,0 c 3.063,0 5.547,-2.483 5.547,-5.547 l 0,-108.392 z m -71.242,0.586 -13.605,13.766 13.605,0 0,-13.766 z m 84.998,140.994 -80.845,0 c -7.527,0 -13.629,-6.102 -13.629,-13.63 l 0,-5.365 -5.106,0 c -7.527,0 -13.629,-6.102 -13.629,-13.629 l 0,-84.142 c 0,-1.907 0.223,-3.806 0.688,-5.655 0.479,-1.907 1.203,-4.116 2.157,-5.14 l 24.29,-24.316 c 0.956,-0.958 2.092,-1.719 3.341,-2.24 l 1.564,-0.652 c 1.637,-0.683 3.393,-1.035 5.167,-1.035 l 57.267,0 c 7.527,0 13.629,6.103 13.629,13.63 l 0,5.365 5.106,0 c 7.527,0 13.629,6.102 13.629,13.629 l 0,109.55 c 0,7.528 -6.102,13.63 -13.629,13.63"
             style="fill:#2aaddd;fill-opacity:1;fill-rule:nonzero;stroke:none"
             id="path3380"
             inkscape:connector-curvature="0" /></g></g></g></g></svg>