<?xml version="1.0" encoding="UTF-8" standalone="no"?>
<!-- Created with Inkscape (http://www.inkscape.org/) -->

<svg
   xmlns:dc="http://purl.org/dc/elements/1.1/"
   xmlns:cc="http://creativecommons.org/ns#"
   xmlns:rdf="http://www.w3.org/1999/02/22-rdf-syntax-ns#"
   xmlns:svg="http://www.w3.org/2000/svg"
   xmlns="http://www.w3.org/2000/svg"
   xmlns:sodipodi="http://sodipodi.sourceforge.net/DTD/sodipodi-0.dtd"
   xmlns:inkscape="http://www.inkscape.org/namespaces/inkscape"
   id="svg3432"
   version="1.1"
   inkscape:version="0.91 r13725"
   xml:space="preserve"
   width="375"
   height="375"
   viewBox="0 0 375 375"
   sodipodi:docname="material-icon.svg"><metadata
     id="metadata3438"><rdf:RDF><cc:Work
         rdf:about=""><dc:format>image/svg+xml</dc:format><dc:type
           rdf:resource="http://purl.org/dc/dcmitype/StillImage" /><dc:title></dc:title></cc:Work></rdf:RDF></metadata><defs
     id="defs3436"><clipPath
       clipPathUnits="userSpaceOnUse"
       id="clipPath3446"><path
         d="M 0,300 300,300 300,0 0,0 0,300 Z"
         id="path3448"
         inkscape:connector-curvature="0" /></clipPath></defs><sodipodi:namedview
     pagecolor="#ffffff"
     bordercolor="#666666"
     borderopacity="1"
     objecttolerance="10"
     gridtolerance="10"
     guidetolerance="10"
     inkscape:pageopacity="0"
     inkscape:pageshadow="2"
     inkscape:window-width="640"
     inkscape:window-height="480"
     id="namedview3434"
     showgrid="false"
     inkscape:zoom="0.62933333"
     inkscape:cx="187.5"
     inkscape:cy="187.5"
     inkscape:window-x="0"
     inkscape:window-y="0"
     inkscape:window-maximized="0"
     inkscape:current-layer="g3440" /><g
     id="g3440"
     inkscape:groupmode="layer"
     inkscape:label="icones_4"
     transform="matrix(1.25,0,0,-1.25,0,375)"><g
       id="g3442"><g
         id="g3444"
         clip-path="url(#clipPath3446)"><g
           id="g3450"
           transform="translate(300.0612,150.1054)"><path
             d="m 0,0 c 0,-82.877 -67.185,-150.061 -150.061,-150.061 -82.877,0 -150.061,67.184 -150.061,150.061 0,82.877 67.184,150.061 150.061,150.061 C -67.185,150.061 0,82.877 0,0"
             style="fill:#ebebec;fill-opacity:1;fill-rule:nonzero;stroke:none"
             id="path3452"
             inkscape:connector-curvature="0" /></g><g
           id="g3454"
           transform="translate(286.8354,150.1054)"><path
             d="m 0,0 c 0,-75.572 -61.263,-136.835 -136.835,-136.835 -75.573,0 -136.836,61.263 -136.836,136.835 0,75.572 61.263,136.835 136.836,136.835 C -61.263,136.835 0,75.572 0,0"
             style="fill:#ffffff;fill-opacity:1;fill-rule:nonzero;stroke:none"
             id="path3456"
             inkscape:connector-curvature="0" /></g><g
           id="g3458"
           transform="translate(150.4054,161.3542)"><path
             d="m 0,0 -61.777,0 c -2.388,0 -4.323,-1.935 -4.323,-4.323 0,-2.388 1.935,-4.323 4.323,-4.323 l 61.777,0 c 2.388,0 4.323,1.935 4.323,4.323 C 4.323,-1.935 2.388,0 0,0"
             style="fill:#2aaddd;fill-opacity:1;fill-rule:nonzero;stroke:none"
             id="path3460"
             inkscape:connector-curvature="0" /></g><g
           id="g3462"
           transform="translate(150.4054,134.6793)"><path
             d="m 0,0 -61.777,0 c -2.388,0 -4.323,-1.936 -4.323,-4.323 0,-2.388 1.935,-4.323 4.323,-4.323 l 61.777,0 c 2.388,0 4.323,1.935 4.323,4.323 C 4.323,-1.936 2.388,0 0,0"
             style="fill:#2aaddd;fill-opacity:1;fill-rule:nonzero;stroke:none"
             id="path3464"
             inkscape:connector-curvature="0" /></g><g
           id="g3466"
           transform="translate(150.4054,108.0044)"><path
             d="m 0,0 -61.777,0 c -2.388,0 -4.323,-1.936 -4.323,-4.323 0,-2.388 1.935,-4.323 4.323,-4.323 l 61.777,0 c 2.388,0 4.323,1.935 4.323,4.323 C 4.323,-1.936 2.388,0 0,0"
             style="fill:#2aaddd;fill-opacity:1;fill-rule:nonzero;stroke:none"
             id="path3468"
             inkscape:connector-curvature="0" /></g><g
           id="g3470"
           transform="translate(150.4054,81.3294)"><path
             d="m 0,0 -31.73,0 c -2.388,0 -4.323,-1.936 -4.323,-4.323 0,-2.388 1.935,-4.323 4.323,-4.323 l 31.73,0 c 2.388,0 4.323,1.935 4.323,4.323 C 4.323,-1.936 2.388,0 0,0"
             style="fill:#2aaddd;fill-opacity:1;fill-rule:nonzero;stroke:none"
             id="path3472"
             inkscape:connector-curvature="0" /></g><g
           id="g3474"
           transform="translate(183.758,81.0469)"><path
             d="m 0,0 c 0,-2.638 -2.139,-4.776 -4.777,-4.776 l -5.36,0 0,95.523 c 0,7.527 -6.102,13.629 -13.629,13.629 l -67.141,0 0,5.556 c 0,2.638 2.138,4.777 4.776,4.777 l 81.354,0 C -2.139,114.709 0,112.57 0,109.932 L 0,0 Z m -18.787,-18.209 c 0,-3.063 -2.484,-5.546 -5.547,-5.546 l -56.995,0 0,23.435 c 0,2.69 -2.031,4.946 -4.707,5.228 l -23.659,0.004 0,85.271 c 0,3.064 2.483,5.547 5.547,5.547 l 79.814,0 c 3.063,0 5.547,-2.483 5.547,-5.547 l 0,-108.392 z m -71.242,0.586 -13.605,13.766 13.605,0 0,-13.766 z m 84.998,140.994 -80.845,0 c -7.527,0 -13.629,-6.102 -13.629,-13.63 l 0,-5.365 -5.106,0 c -7.527,0 -13.629,-6.102 -13.629,-13.629 l 0,-84.142 c 0,-1.907 0.223,-3.806 0.688,-5.655 0.479,-1.907 1.203,-4.116 2.157,-5.14 l 24.29,-24.316 c 0.956,-0.958 2.092,-1.719 3.341,-2.24 l 1.564,-0.652 c 1.637,-0.683 3.393,-1.035 5.167,-1.035 l 57.267,0 c 7.527,0 13.629,6.103 13.629,13.63 l 0,5.365 5.106,0 c 7.527,0 13.629,6.102 13.629,13.629 l 0,109.55 c 0,7.528 -6.102,13.63 -13.629,13.63"
             style="fill:#2aaddd;fill-opacity:1;fill-rule:nonzero;stroke:none"
             id="path3476"
             inkscape:connector-curvature="0" /></g><g
           id="g3478"
           transform="translate(181.9211,213.2917)"><path
             d="m 0,0 0,0 c -2.25,0 -4.075,1.824 -4.075,4.074 l 0,30.156 c 0,2.251 1.825,4.075 4.075,4.075 2.25,0 4.075,-1.824 4.075,-4.075 l 0,-30.156 C 4.075,1.824 2.25,0 0,0"
             style="fill:#2aaddd;fill-opacity:1;fill-rule:nonzero;stroke:none"
             id="path3480"
             inkscape:connector-curvature="0" /></g><g
           id="g3482"
           transform="translate(192.8913,206.0562)"><path
             d="m 0,0 0,0 c -1.368,1.787 -1.029,4.344 0.758,5.712 l 23.943,18.333 c 1.787,1.368 4.345,1.028 5.713,-0.758 1.368,-1.787 1.028,-4.344 -0.759,-5.712 L 5.712,-0.758 C 3.925,-2.126 1.368,-1.787 0,0"
             style="fill:#2aaddd;fill-opacity:1;fill-rule:nonzero;stroke:none"
             id="path3484"
             inkscape:connector-curvature="0" /></g><g
           id="g3486"
           transform="translate(197.0294,187.9103)"><path
             d="m 0,0 0,0 c -0.499,2.194 0.875,4.378 3.069,4.877 l 29.404,6.69 C 34.668,12.066 36.851,10.692 37.35,8.498 37.849,6.304 36.475,4.12 34.281,3.621 L 4.877,-3.069 C 2.683,-3.568 0.499,-2.194 0,0"
             style="fill:#2aaddd;fill-opacity:1;fill-rule:nonzero;stroke:none"
             id="path3488"
             inkscape:connector-curvature="0" /></g><g
           id="g3490"
           transform="translate(160.5884,212.3329)"><path
             d="m 0,0 0,0 c -1.602,-1.58 -4.182,-1.562 -5.762,0.04 l -21.175,21.471 c -1.58,1.602 -1.562,4.182 0.04,5.762 l 0,0 c 1.602,1.58 4.182,1.562 5.762,-0.04 L 0.04,5.762 C 1.62,4.16 1.602,1.58 0,0"
             style="fill:#2aaddd;fill-opacity:1;fill-rule:nonzero;stroke:none"
             id="path3492"
             inkscape:connector-curvature="0" /></g></g></g></g></svg>